<mxfile host="Electron" modified="2024-03-28T13:32:41.192Z" agent="Mozilla/5.0 (Windows NT 10.0; Win64; x64) AppleWebKit/537.36 (KHTML, like Gecko) draw.io/24.0.4 Chrome/120.0.6099.109 Electron/28.1.0 Safari/537.36" etag="7xXE5lJpnYX1IB5gwi53" version="24.0.4" type="device">
  <diagram name="Page-1" id="pAi3obp8SU80nnsVPSeO">
    <mxGraphModel dx="1084" dy="951" grid="1" gridSize="10" guides="1" tooltips="1" connect="1" arrows="1" fold="1" page="1" pageScale="1" pageWidth="850" pageHeight="1100" math="0" shadow="0">
      <root>
        <mxCell id="0" />
        <mxCell id="1" parent="0" />
        <mxCell id="blByohVjnfAvLzYv5f4i-5" style="edgeStyle=orthogonalEdgeStyle;rounded=0;orthogonalLoop=1;jettySize=auto;html=1;entryX=0;entryY=0.5;entryDx=0;entryDy=0;" edge="1" parent="1" source="blByohVjnfAvLzYv5f4i-1" target="blByohVjnfAvLzYv5f4i-3">
          <mxGeometry relative="1" as="geometry" />
        </mxCell>
        <mxCell id="blByohVjnfAvLzYv5f4i-1" value="Monolithic" style="rounded=0;whiteSpace=wrap;html=1;fillColor=#dae8fc;strokeColor=#6c8ebf;" vertex="1" parent="1">
          <mxGeometry x="250" y="340" width="120" height="60" as="geometry" />
        </mxCell>
        <mxCell id="blByohVjnfAvLzYv5f4i-7" style="edgeStyle=orthogonalEdgeStyle;rounded=0;orthogonalLoop=1;jettySize=auto;html=1;entryX=0;entryY=0.5;entryDx=0;entryDy=0;" edge="1" parent="1" source="blByohVjnfAvLzYv5f4i-2" target="blByohVjnfAvLzYv5f4i-4">
          <mxGeometry relative="1" as="geometry" />
        </mxCell>
        <mxCell id="blByohVjnfAvLzYv5f4i-2" value="Microservices" style="rounded=0;whiteSpace=wrap;html=1;fillColor=#ffe6cc;strokeColor=#d79b00;" vertex="1" parent="1">
          <mxGeometry x="550" y="340" width="120" height="60" as="geometry" />
        </mxCell>
        <mxCell id="blByohVjnfAvLzYv5f4i-6" style="edgeStyle=orthogonalEdgeStyle;rounded=0;orthogonalLoop=1;jettySize=auto;html=1;entryX=0;entryY=0.5;entryDx=0;entryDy=0;" edge="1" parent="1" source="blByohVjnfAvLzYv5f4i-3" target="blByohVjnfAvLzYv5f4i-2">
          <mxGeometry relative="1" as="geometry" />
        </mxCell>
        <mxCell id="blByohVjnfAvLzYv5f4i-3" value="Modular Monolithic" style="rounded=0;whiteSpace=wrap;html=1;fillColor=#fff2cc;strokeColor=#d6b656;" vertex="1" parent="1">
          <mxGeometry x="400" y="340" width="120" height="60" as="geometry" />
        </mxCell>
        <mxCell id="blByohVjnfAvLzYv5f4i-4" value="Serverless" style="rounded=0;whiteSpace=wrap;html=1;fillColor=#e1d5e7;strokeColor=#9673a6;" vertex="1" parent="1">
          <mxGeometry x="700" y="340" width="120" height="60" as="geometry" />
        </mxCell>
        <mxCell id="blByohVjnfAvLzYv5f4i-8" value="Decomposition" style="rounded=0;whiteSpace=wrap;html=1;fillColor=#b0e3e6;strokeColor=#0e8088;" vertex="1" parent="1">
          <mxGeometry x="250" y="420" width="570" height="30" as="geometry" />
        </mxCell>
        <mxCell id="blByohVjnfAvLzYv5f4i-9" value="Communications" style="rounded=0;whiteSpace=wrap;html=1;fillColor=#bac8d3;strokeColor=#23445d;" vertex="1" parent="1">
          <mxGeometry x="250" y="470" width="570" height="30" as="geometry" />
        </mxCell>
        <mxCell id="blByohVjnfAvLzYv5f4i-10" value="Data Management" style="rounded=0;whiteSpace=wrap;html=1;fillColor=#b0e3e6;strokeColor=#0e8088;" vertex="1" parent="1">
          <mxGeometry x="250" y="520" width="570" height="30" as="geometry" />
        </mxCell>
        <mxCell id="blByohVjnfAvLzYv5f4i-11" value="Transaction Management" style="rounded=0;whiteSpace=wrap;html=1;fillColor=#bac8d3;strokeColor=#23445d;" vertex="1" parent="1">
          <mxGeometry x="250" y="570" width="570" height="30" as="geometry" />
        </mxCell>
        <mxCell id="blByohVjnfAvLzYv5f4i-12" value="Deployment" style="rounded=0;whiteSpace=wrap;html=1;fillColor=#b0e3e6;strokeColor=#0e8088;" vertex="1" parent="1">
          <mxGeometry x="250" y="620" width="570" height="30" as="geometry" />
        </mxCell>
        <mxCell id="blByohVjnfAvLzYv5f4i-13" value="Resilience" style="rounded=0;whiteSpace=wrap;html=1;fillColor=#bac8d3;strokeColor=#23445d;" vertex="1" parent="1">
          <mxGeometry x="250" y="670" width="570" height="30" as="geometry" />
        </mxCell>
        <mxCell id="blByohVjnfAvLzYv5f4i-14" value="" style="shape=flexArrow;endArrow=classic;startArrow=classic;html=1;rounded=0;" edge="1" parent="1">
          <mxGeometry width="100" height="100" relative="1" as="geometry">
            <mxPoint x="220" y="700" as="sourcePoint" />
            <mxPoint x="220" y="420" as="targetPoint" />
          </mxGeometry>
        </mxCell>
      </root>
    </mxGraphModel>
  </diagram>
</mxfile>
